<?xml version="1.0" encoding="utf-8"?>
<svg width="512" height="512" viewBox="0 0 512 512" fill="none" xmlns="http://www.w3.org/2000/svg">
  <g>
    <path d="M0 0L128 0C198.702 0 256 57.2979 256 128C256 57.2979 313.298 0 384 0L512 0L512 128C512 198.702 454.702 256 384 256C454.702 256 512 313.298 512 384C512 454.702 454.702 512 384 512C313.298 512 256 454.702 256 384C256 454.702 198.702 512 128 512C57.2979 512 0 454.702 0 384C0 313.298 57.2979 256 128 256C57.2979 256 0 198.702 0 128L0 0ZM206.359 339.699Q227.829 352 256 352Q284.718 352 306.598 339.699C320.82 331.499 331.943 320.178 339.966 305.738C347.989 291.298 352 274.63 352 255.733C352 237.37 347.989 220.791 339.966 205.994Q327.658 184.602 306.325 172.301C292.103 164.1 275.328 160 256 160C237.219 160 220.718 164.011 206.496 172.033C192.091 180.234 180.741 191.599 172.444 206.128Q160 227.922 160 255.733C160 274.808 164.194 291.387 172.581 305.471C180.786 320.089 192.046 331.499 206.359 339.699ZM299.35 327.398C287.407 334.351 272.957 337.827 256 337.827C239.59 337.827 225.368 334.351 213.333 327.398C201.481 320.624 192.273 311.131 185.709 298.919C179.145 286.708 175.863 272.312 175.863 255.733C175.863 239.153 179.145 224.802 185.709 212.68C192.091 200.557 201.254 191.109 213.197 184.334Q231.111 174.173 256 174.173Q268.855 174.173 279.521 176.713C286.632 178.407 293.197 180.858 299.214 184.067Q316.991 194.228 326.974 212.68C333.63 224.98 336.957 239.331 336.957 255.733C336.957 272.134 333.675 286.485 327.111 298.786Q317.265 316.969 299.35 327.398ZM225.368 309.081C234.484 313.983 244.877 316.435 256.547 316.435Q278.427 316.435 293.744 304.535C303.954 296.602 310.518 286.128 313.436 273.114L276.513 273.114C274.689 277.214 272.137 280.735 268.855 283.677C265.573 286.618 261.105 288.089 255.453 288.089C248.16 288.089 242.279 285.326 237.812 279.799C233.345 274.273 231.111 266.251 231.111 255.733C231.111 245.214 233.345 237.281 237.812 231.933Q244.513 223.911 255.453 223.911C260.923 223.911 265.39 225.248 268.855 227.922C272.319 230.596 274.872 234.162 276.513 238.618L313.436 238.618C310.518 225.248 303.954 214.641 293.744 206.797C283.533 198.953 271.134 195.031 256.547 195.031C250.895 195.031 245.424 195.655 240.137 196.902C234.849 198.15 229.926 200.111 225.368 202.785C216.068 207.777 208.912 214.73 203.897 223.643Q196.376 237.014 196.376 255.733C196.376 268.033 198.929 278.73 204.034 287.822C209.14 297.092 216.251 304.178 225.368 309.081Z" fill="#FFFFFF" fill-rule="evenodd" />
  </g>
</svg>
